<?xml version="1.0" encoding="UTF-8"?>
<svg xmlns="http://www.w3.org/2000/svg" width="32" height="32" viewBox="0 0 32 32">
  <!-- Background -->
  <rect width="32" height="32" rx="6" fill="#000000"/>
  
  <!-- Rust gear shape -->
  <g transform="translate(16,16)">
    <!-- Gear teeth -->
    <path d="M -1.5,-8 L 1.5,-8 L 2,-10 L 0,-11 L -2,-10 Z
             M 8,-1.5 L 8,1.5 L 10,2 L 11,0 L 10,-2 Z
             M 1.5,8 L -1.5,8 L -2,10 L 0,11 L 2,10 Z
             M -8,1.5 L -8,-1.5 L -10,-2 L -11,0 L -10,2 Z"
          fill="#d32f2f"/>
    
    <!-- Main gear body -->
    <path d="M -1.5,-8 L 1.5,-8 L 1.5,-6 L 6,-6 L 6,-1.5 L 8,-1.5 L 8,1.5 L 6,1.5 L 6,6 L 1.5,6 L 1.5,8 L -1.5,8 L -1.5,6 L -6,6 L -6,1.5 L -8,1.5 L -8,-1.5 L -6,-1.5 L -6,-6 L -1.5,-6 Z"
          fill="#d32f2f" stroke="#b71c1c" stroke-width="0.5"/>
    
    <!-- Center hole -->
    <circle cx="0" cy="0" r="4" fill="#000000"/>
    
    <!-- Inner design combining R and fm wave -->
    <g transform="scale(0.8)">
      <!-- Simplified R shape -->
      <path d="M -2,3 L -2,-3 L 0,-3 C 1.5,-3 2.5,-2 2.5,-0.5 C 2.5,0.5 2,1.5 0.5,1.5 L 2.5,3 L 1,3 L -0.5,1.5 L -0.5,3 Z
               M -0.5,-1.5 L -0.5,0.5 L 0,0.5 C 0.8,0.5 1.2,0.2 1.2,-0.5 C 1.2,-1.2 0.8,-1.5 0,-1.5 Z"
            fill="#ffffff"/>
    </g>
  </g>
  
  <!-- Last.fm wave element in corner -->
  <g transform="translate(22,22)">
    <path d="M 0,0 Q 2,-2 4,-2 Q 6,-2 8,0 L 8,1 Q 6,-1 4,-1 Q 2,-1 0,1 Z" 
          fill="#ffffff" opacity="0.9"/>
    <path d="M 0,2 Q 2,0 4,0 Q 6,0 8,2 L 8,3 Q 6,1 4,1 Q 2,1 0,3 Z" 
          fill="#ffffff" opacity="0.6"/>
    <path d="M 0,4 Q 2,2 4,2 Q 6,2 8,4 L 8,5 Q 6,3 4,3 Q 2,3 0,5 Z" 
          fill="#ffffff" opacity="0.3"/>
  </g>
</svg>